<svg xmlns="http://www.w3.org/2000/svg" width="19.826" height="28.154" viewBox="0 0 19.826 28.154">
  <g id="Group_19" data-name="Group 19" transform="translate(-1259 -5048)">
    <g id="Group_18" data-name="Group 18" transform="translate(1259 5048)">
      <path id="Path_33" data-name="Path 33" d="M85.639,28.154a10,10,0,0,1-9.913-10.068V10.068a9.914,9.914,0,1,1,19.826,0v8.048A9.987,9.987,0,0,1,85.639,28.154Zm0-26.29a8.137,8.137,0,0,0-8.048,8.2v8.017a8.05,8.05,0,1,0,16.1.031V10.068A8.136,8.136,0,0,0,85.639,1.864Z" transform="translate(-75.726)" fill="#fd9019"/>
      <path id="Path_34" data-name="Path 34" d="M239.978,145.277a.932.932,0,0,1-.932-.932v-3.263a.932.932,0,1,1,1.865,0v3.263A.932.932,0,0,1,239.978,145.277Z" transform="translate(-230.065 -132.443)" fill="#fd9019"/>
    </g>
  </g>
</svg>
