<svg xmlns="http://www.w3.org/2000/svg" width="38.005" height="38.005" viewBox="0 0 38.005 38.005">
  <path id="Icon_awesome-external-link-square-alt" data-name="Icon awesome-external-link-square-alt" d="M38,6.322V36.183a4.072,4.072,0,0,1-4.072,4.072H4.072A4.072,4.072,0,0,1,0,36.183V6.322A4.072,4.072,0,0,1,4.072,2.25H33.933A4.072,4.072,0,0,1,38,6.322ZM30.54,7.679h-9.5a2.038,2.038,0,0,0-1.44,3.476l2.713,2.714L5.727,30.455a1.018,1.018,0,0,0,0,1.44L8.36,34.527a1.018,1.018,0,0,0,1.44,0L26.386,17.941,29.1,20.654a2.037,2.037,0,0,0,3.476-1.44v-9.5A2.036,2.036,0,0,0,30.54,7.679Z" transform="translate(0 -2.25)" fill="#f3c404"/>
</svg>
