<svg xmlns="http://www.w3.org/2000/svg" width="48.256" height="38.604" viewBox="0 0 48.256 38.604">
  <g id="Icon_ionic-ios-photos" data-name="Icon ionic-ios-photos" transform="translate(-1.125 -4.5)">
    <path id="Path_14267" data-name="Path 14267" d="M43.746,10.125H9.967A3.226,3.226,0,0,0,6.75,13.342V37.47a3.226,3.226,0,0,0,3.217,3.217H43.746a3.226,3.226,0,0,0,3.217-3.217V13.342A3.226,3.226,0,0,0,43.746,10.125Z" transform="translate(2.418 2.418)" fill="#f9d440"/>
    <path id="Path_14268" data-name="Path 14268" d="M9.57,9.728H42.946V7.717A3.226,3.226,0,0,0,39.729,4.5H4.342A3.226,3.226,0,0,0,1.125,7.717V33.453A3.226,3.226,0,0,0,4.342,36.67H6.353V12.945A3.226,3.226,0,0,1,9.57,9.728Z" transform="translate(0 0)" fill="#f9d440"/>
  </g>
</svg>
