<svg xmlns="http://www.w3.org/2000/svg" width="69.643" height="48.75" viewBox="0 0 69.643 48.75">
  <path id="Icon_awesome-users" data-name="Icon awesome-users" d="M10.446,23.143a6.964,6.964,0,1,0-6.964-6.964A6.971,6.971,0,0,0,10.446,23.143Zm48.75,0a6.964,6.964,0,1,0-6.964-6.964A6.971,6.971,0,0,0,59.2,23.143Zm3.482,3.482H55.714a6.944,6.944,0,0,0-4.908,2.024,15.917,15.917,0,0,1,8.172,11.9h7.182a3.478,3.478,0,0,0,3.482-3.482V33.589A6.971,6.971,0,0,0,62.679,26.625Zm-27.857,0A12.188,12.188,0,1,0,22.634,14.438,12.181,12.181,0,0,0,34.821,26.625Zm8.357,3.482h-.9a16.827,16.827,0,0,1-14.908,0h-.9A12.539,12.539,0,0,0,13.929,42.643v3.134A5.225,5.225,0,0,0,19.152,51H50.491a5.225,5.225,0,0,0,5.223-5.223V42.643A12.539,12.539,0,0,0,43.179,30.107ZM18.836,28.649a6.944,6.944,0,0,0-4.908-2.024H6.964A6.971,6.971,0,0,0,0,33.589v3.482a3.478,3.478,0,0,0,3.482,3.482h7.171A15.957,15.957,0,0,1,18.836,28.649Z" transform="translate(0 -2.25)" fill="#f9d440"/>
</svg>
